<?xml version="1.0" encoding="utf-8"?>
<!-- Generator: Adobe Illustrator 21.0.0, SVG Export Plug-In . SVG Version: 6.00 Build 0)  -->
<svg version="1.1" id="Layer_1" xmlns="http://www.w3.org/2000/svg" xmlns:xlink="http://www.w3.org/1999/xlink" x="0px" y="0px"
	 viewBox="0 0 171.3 18.2" style="enable-background:new 0 0 171.3 18.2;" xml:space="preserve">
<style type="text/css">
	.st0{fill:#FFFFFF;}
</style>
<path class="st0" d="M6.1,10.6L5.3,13c-0.3,0.9-0.6,1.7-0.8,2.2s-0.3,0.9-0.2,1.2c0,0.3,0.2,0.5,0.5,0.6s0.7,0.2,1.4,0.2l0.5,0.1
	l0.1,0.2H1.2l0.1-0.2l0.5-0.1c0.4-0.1,0.8-0.1,1.1-0.2s0.5-0.3,0.7-0.6c0.2-0.3,0.4-0.7,0.7-1.3c0.2-0.6,0.5-1.3,0.9-2.3l3-8.3
	L7.9,3.7c0.7-0.2,1.3-0.5,1.6-1c0.4-0.5,0.7-1.1,1.1-1.9h0.7l4.6,12.9c0.3,0.7,0.5,1.3,0.7,1.7c0.2,0.4,0.4,0.8,0.6,1
	s0.4,0.4,0.6,0.5c0.2,0.1,0.4,0.2,0.7,0.2l0.7,0.1v0.2h-8.8l0.1-0.2l0.6-0.1c0.6-0.1,1-0.2,1-0.5c0.1-0.3,0-0.8-0.3-1.6l-1.6-4.5
	L6.1,10.6L6.1,10.6z M10.1,10.3L8.2,4.9l0,0l-2,5.4H10.1z"/>
<path class="st0" d="M19.6,17.2l1-0.1c0.4-0.1,0.8-0.1,0.9-0.2c0.2-0.1,0.3-0.2,0.3-0.2V1.9c0-0.1,0-0.1,0-0.1s-0.1-0.1-0.2-0.1
	s-0.2-0.1-0.4-0.1c-0.2,0-0.4-0.1-0.8-0.1l-0.7-0.1l-0.2-0.1l8.4-0.1c2.3,0,4,0.3,5.2,0.9s1.7,1.6,1.7,3c0,1-0.4,1.8-1.1,2.5
	C33,8.3,32,8.8,30.8,9l3.1,5.1c0.4,0.6,0.7,1.1,0.9,1.4c0.2,0.4,0.5,0.7,0.7,0.9s0.4,0.4,0.7,0.5c0.2,0.1,0.5,0.2,0.8,0.2h0.2
	l0.1,0.2H31l-0.2-0.5l-3.9-7.6c-0.2,0-0.4-0.1-0.6-0.1c-0.2,0-0.4-0.1-0.5-0.2v7.7c0,0.1,0,0.1,0,0.1s0.1,0.1,0.2,0.1
	c0.1,0,0.2,0.1,0.4,0.1s0.4,0.1,0.8,0.1l0.9,0.1l0.1,0.2h-8.7L19.6,17.2z M26.4,8.8c1.3,0,2.3-0.3,3-0.9s1.1-1.5,1.1-2.7
	c0-1.1-0.3-1.9-1-2.6c-0.7-0.6-1.6-0.9-2.8-1h-0.8v7.2c0.1,0,0.1,0,0.2,0C26.2,8.8,26.3,8.8,26.4,8.8z"/>
<path class="st0" d="M47,17.6c-1.5,0-2.8-0.2-4-0.7c-1.2-0.4-2.2-1-3-1.8s-1.4-1.6-1.9-2.6c-0.4-1-0.6-2-0.6-3.1s0.2-2.2,0.6-3.2
	s1-1.9,1.8-2.7c0.8-0.8,1.8-1.4,3.1-1.9c1.2-0.5,2.6-0.7,4.2-0.7c0.8,0,1.5,0.1,2.2,0.3c0.7,0.2,1.2,0.4,1.7,0.6l1.8-0.4l0.2,5.3
	h-0.2l-2.8-4.8c-0.2-0.1-0.6-0.3-1.1-0.4s-1.1-0.2-1.8-0.2c-0.8,0-1.6,0.2-2.2,0.6c-0.7,0.4-1.2,0.9-1.6,1.7c-0.4,0.7-0.8,1.6-1,2.6
	S42,8.3,42,9.5c0,1.2,0.1,2.3,0.4,3.3c0.3,1,0.6,1.8,1.1,2.5s1,1.2,1.6,1.6c0.6,0.4,1.3,0.5,2,0.5c1.4,0,2.5-0.3,3.4-1
	s1.6-1.6,2.2-2.8l0.9-2h0.2l-0.8,5l-0.8,0.1c-0.2,0.1-0.5,0.2-0.9,0.3c-0.4,0.1-0.8,0.2-1.3,0.3c-0.5,0.1-0.9,0.2-1.4,0.2
	C47.9,17.6,47.5,17.6,47,17.6z"/>
<path class="st0" d="M58.6,17.2l1-0.1c0.4,0,0.7-0.1,0.9-0.2c0.2-0.1,0.3-0.2,0.3-0.3V1.5h-0.6c-0.7,0.1-1.2,0.2-1.8,0.6
	c-0.5,0.3-1,0.7-1.5,1.1c-0.4,0.4-0.8,0.9-1.1,1.4s-0.5,0.9-0.7,1.2l-0.2,0.4h-0.2l0.6-4.9h15.2l0.3,4.9h-0.2l-0.1-0.4
	c-0.2-0.3-0.4-0.7-0.7-1.2c-0.3-0.5-0.7-1-1.1-1.4c-0.4-0.5-0.9-0.8-1.4-1.2c-0.5-0.3-1.1-0.5-1.7-0.5H65v15.2
	c0,0.1,0.1,0.2,0.2,0.2c0.2,0,0.6,0.1,1.2,0.2l0.7,0.1l0.1,0.2h-8.7L58.6,17.2z"/>
<path class="st0" d="M72.4,17.2l1-0.1c0.4,0,0.7-0.1,0.9-0.2c0.2-0.1,0.3-0.2,0.3-0.3V1.9c0-0.1,0-0.1-0.1-0.1c0,0-0.1-0.1-0.2-0.1
	s-0.2-0.1-0.4-0.1c-0.2,0-0.4-0.1-0.8-0.1l-0.7-0.1l-0.1-0.2H81l-0.1,0.2l-1,0.1c-0.4,0-0.7,0.1-0.9,0.2c-0.2,0.1-0.3,0.2-0.3,0.3
	v14.7c0,0.1,0.1,0.2,0.3,0.2c0.2,0,0.6,0.1,1.2,0.2l0.7,0.1l0.1,0.2h-8.6V17.2z"/>
<path class="st0" d="M91.7,17.6c-1.5,0-2.8-0.2-4-0.7c-1.2-0.4-2.2-1-3-1.8s-1.4-1.6-1.9-2.6c-0.4-1-0.6-2-0.6-3.1s0.2-2.2,0.6-3.2
	s1-1.9,1.8-2.7c0.8-0.8,1.8-1.4,3.1-1.9c1.2-0.5,2.6-0.7,4.2-0.7c0.8,0,1.5,0.1,2.2,0.3c0.7,0.2,1.2,0.4,1.7,0.6l1.8-0.4l0.2,5.3
	h-0.2l-2.8-4.8c-0.2-0.1-0.6-0.3-1.1-0.4s-1.1-0.2-1.8-0.2c-0.8,0-1.6,0.2-2.2,0.6c-0.7,0.4-1.2,0.9-1.6,1.7c-0.4,0.7-0.8,1.6-1,2.6
	s-0.4,2.1-0.4,3.3c0,1.2,0.1,2.3,0.4,3.3s0.6,1.8,1.1,2.5s1,1.2,1.6,1.6c0.6,0.4,1.3,0.5,2,0.5c1.4,0,2.5-0.3,3.4-1s1.6-1.6,2.2-2.8
	l0.9-2h0.2l-0.8,5l-0.8,0.1c-0.2,0.1-0.5,0.2-0.9,0.3c-0.4,0.1-0.8,0.2-1.3,0.3s-0.9,0.2-1.4,0.2C92.6,17.6,92.1,17.6,91.7,17.6z"/>
<path class="st0" d="M105.3,4.6C105,4,104.8,3.4,104.6,3s-0.4-0.7-0.6-0.9c-0.2-0.2-0.4-0.4-0.6-0.5s-0.4-0.1-0.7-0.2l-0.5-0.1
	l-0.1-0.2h8.5l-0.1,0.2h-0.8c-0.4,0-0.6,0.1-0.8,0.1c-0.2,0.1-0.3,0.1-0.3,0.2c-0.1,0.1-0.1,0.2,0,0.3s0.1,0.3,0.2,0.5l4,9.7h0.1
	l2.6-6.6l-0.4-1.1c-0.2-0.6-0.4-1-0.6-1.4s-0.3-0.7-0.5-0.9c-0.2-0.2-0.4-0.4-0.5-0.5c-0.2-0.1-0.4-0.2-0.6-0.2l-0.7-0.1l-0.1-0.2
	h8.9l-0.1,0.2h-0.8c-0.7,0-1.1,0.1-1.2,0.3c-0.2,0.2-0.1,0.5,0.1,1.1l3.3,9.2h0.1l2.3-6.2c0.3-0.8,0.6-1.6,0.7-2.1s0.3-0.8,0.2-1.2
	c0-0.3-0.2-0.5-0.5-0.7c-0.3-0.1-0.8-0.3-1.5-0.3l-0.5-0.1L123,1.2h5.6l-0.1,0.2l-0.4,0.1c-0.5,0.1-0.9,0.1-1.2,0.3
	s-0.4,0.3-0.6,0.6c-0.2,0.3-0.3,0.6-0.5,1.1c-0.2,0.5-0.5,1.3-0.8,2.2l-4.5,11.9h-0.4l-4.5-11.4V6l-4.6,11.5h-0.4L105.3,4.6z"/>
<path class="st0" d="M128.4,17.2l1-0.1c0.4,0,0.7-0.1,0.9-0.2c0.2-0.1,0.3-0.2,0.3-0.3V1.9c0-0.1,0-0.1-0.1-0.1c0,0-0.1-0.1-0.2-0.1
	c-0.1,0-0.2-0.1-0.4-0.1s-0.4-0.1-0.8-0.1l-0.7-0.1l-0.1-0.2h8.7l-0.1,0.2l-1,0.1c-0.4,0-0.7,0.1-0.9,0.2s-0.3,0.2-0.3,0.3v14.7
	c0,0.1,0.1,0.2,0.3,0.2s0.6,0.1,1.2,0.2l0.7,0.1l0.1,0.2h-8.6L128.4,17.2z"/>
<path class="st0" d="M138,17.2l1-0.1c0.4-0.1,0.8-0.1,0.9-0.2s0.3-0.1,0.3-0.2V1.9c0-0.1,0-0.1,0-0.1s-0.1-0.1-0.2-0.1
	c-0.1,0-0.2-0.1-0.4-0.1s-0.4-0.1-0.8-0.1l-0.7-0.1L138,1.2h8.9l-0.1,0.2l-1.2,0.1c-0.3,0-0.6,0.1-0.8,0.2s-0.3,0.2-0.3,0.3v15
	c0,0,1.8,0.3,2.9-0.1c0.5-0.2,1.1-0.5,1.6-1c0.5-0.4,1.1-1,1.6-1.8c0.5-0.7,1-1.6,1.6-2.7l0.2-0.3h0.2l-0.8,6.3h-13.5L138,17.2z"/>
<path class="st0" d="M153.3,17.2l1-0.1c0.4-0.1,0.8-0.1,0.9-0.2s0.3-0.1,0.3-0.2V1.9c0-0.1-0.1-0.1-0.3-0.2c-0.2,0-0.6-0.1-1.2-0.2
	l-0.7-0.1l-0.1-0.2h4.4c0.5,0,1.1,0,1.6,0s1,0,1.4,0s0.7,0,0.9,0s0.3,0,0.2,0c2.9,0,5.1,0.7,6.5,2s2.2,3.3,2.2,6
	c0,1.1-0.2,2.1-0.7,3.1s-1.1,1.8-1.9,2.6c-0.8,0.7-1.8,1.3-2.8,1.7c-1.1,0.4-2.2,0.6-3.4,0.6h-8.4L153.3,17.2z M163.3,16.5
	c0.6-0.4,1.1-0.9,1.5-1.6s0.7-1.4,0.9-2.3s0.3-1.8,0.3-2.8c0-5.4-1.7-8.1-5.1-8.1h-1.3v15.1C159.6,16.8,162.7,16.9,163.3,16.5z"/>
</svg>
